<svg width="24" height="24" viewBox="0 0 24 24" fill="none" xmlns="http://www.w3.org/2000/svg">
    <path
        d="M18.75 24C17.2969 24 16.0586 23.4883 15.0352 22.4648C14.0117 21.4414 13.5 20.2031 13.5 18.75C13.5 17.2969 14.0117 16.0586 15.0352 15.0352C16.0586 14.0117 17.2969 13.5 18.75 13.5C20.2031 13.5 21.4414 14.0117 22.4648 15.0352C23.4883 16.0586 24 17.2969 24 18.75C24 20.2031 23.4883 21.4414 22.4648 22.4648C21.4414 23.4883 20.2031 24 18.75 24ZM21.75 18H19.5V15.75C19.5 15.5469 19.4258 15.3711 19.2773 15.2227C19.1289 15.0742 18.9531 15 18.75 15C18.5469 15 18.3711 15.0742 18.2227 15.2227C18.0742 15.3711 18 15.5469 18 15.75V18.75C18 18.9375 18.0586 19.0977 18.1758 19.2305C18.293 19.3633 18.4375 19.4453 18.6094 19.4766C18.6406 19.4922 18.6875 19.5 18.75 19.5H21.75C21.9531 19.5 22.1289 19.4258 22.2773 19.2773C22.4258 19.1289 22.5 18.9531 22.5 18.75C22.5 18.5469 22.4258 18.3711 22.2773 18.2227C22.1289 18.0742 21.9531 18 21.75 18ZM11.25 19.5H6.75C6.54688 19.5 6.37109 19.4258 6.22266 19.2773C6.07422 19.1289 6 18.9531 6 18.75C6 18.5469 6.07422 18.3711 6.22266 18.2227C6.37109 18.0742 6.54688 18 6.75 18H11.25C11.4531 18 11.6289 18.0742 11.7773 18.2227C11.9258 18.3711 12 18.5469 12 18.75C12 18.9531 11.9258 19.1289 11.7773 19.2773C11.6289 19.4258 11.4531 19.5 11.25 19.5ZM6.75 15H11.25C11.4531 15 11.6289 15.0742 11.7773 15.2227C11.9258 15.3711 12 15.5469 12 15.75C12 15.9531 11.9258 16.1289 11.7773 16.2773C11.6289 16.4258 11.4531 16.5 11.25 16.5H6.75C6.54688 16.5 6.37109 16.4258 6.22266 16.2773C6.07422 16.1289 6 15.9531 6 15.75C6 15.5469 6.07422 15.3711 6.22266 15.2227C6.37109 15.0742 6.54688 15 6.75 15ZM14.25 13.5H6.75C6.54688 13.5 6.37109 13.4258 6.22266 13.2773C6.07422 13.1289 6 12.9531 6 12.75C6 12.5469 6.07422 12.3711 6.22266 12.2227C6.37109 12.0742 6.54688 12 6.75 12H14.25C14.4531 12 14.6289 12.0742 14.7773 12.2227C14.9258 12.3711 15 12.5469 15 12.75C15 12.9531 14.9258 13.1289 14.7773 13.2773C14.6289 13.4258 14.4531 13.5 14.25 13.5ZM17.25 10.5H6.75C6.54688 10.5 6.37109 10.4258 6.22266 10.2773C6.07422 10.1289 6 9.95312 6 9.75C6 9.54688 6.07422 9.37109 6.22266 9.22266C6.37109 9.07422 6.54688 9 6.75 9H17.25C17.4531 9 17.6289 9.07422 17.7773 9.22266C17.9258 9.37109 18 9.54688 18 9.75C18 9.95312 17.9258 10.1289 17.7773 10.2773C17.6289 10.4258 17.4531 10.5 17.25 10.5ZM17.25 4.5H6.75C6.54688 4.5 6.37109 4.42578 6.22266 4.27734C6.07422 4.12891 6 3.95312 6 3.75C6 3.54688 6.07422 3.37109 6.22266 3.22266C6.37109 3.07422 6.54688 3 6.75 3H17.25C17.4531 3 17.6289 3.07422 17.7773 3.22266C17.9258 3.37109 18 3.54688 18 3.75C18 3.95312 17.9258 4.12891 17.7773 4.27734C17.6289 4.42578 17.4531 4.5 17.25 4.5ZM17.25 7.5H6.75C6.54688 7.5 6.37109 7.42578 6.22266 7.27734C6.07422 7.12891 6 6.95312 6 6.75C6 6.54688 6.07422 6.37109 6.22266 6.22266C6.37109 6.07422 6.54688 6 6.75 6H17.25C17.4531 6 17.6289 6.07422 17.7773 6.22266C17.9258 6.37109 18 6.54688 18 6.75C18 6.95312 17.9258 7.12891 17.7773 7.27734C17.6289 7.42578 17.4531 7.5 17.25 7.5ZM19.5 2.25C19.5 2.04688 19.4258 1.87109 19.2773 1.72266C19.1289 1.57422 18.9531 1.5 18.75 1.5H3.75C3.54688 1.5 3.37109 1.57422 3.22266 1.72266C3.07422 1.87109 3 2.04688 3 2.25V3C3.42188 3 3.77734 3.14453 4.06641 3.43359C4.35547 3.72266 4.5 4.07812 4.5 4.5C4.5 4.92188 4.35547 5.27734 4.06641 5.56641C3.77734 5.85547 3.42188 6 3 6V7.5C3.42188 7.5 3.77734 7.64453 4.06641 7.93359C4.35547 8.22266 4.5 8.57812 4.5 9C4.5 9.42188 4.35547 9.77734 4.06641 10.0664C3.77734 10.3555 3.42188 10.5 3 10.5V12C3.42188 12 3.77734 12.1445 4.06641 12.4336C4.35547 12.7227 4.5 13.0742 4.5 13.4883C4.5 13.9023 4.35547 14.2578 4.06641 14.5547C3.77734 14.8516 3.42188 15 3 15V16.5C3.42188 16.5 3.77734 16.6445 4.06641 16.9336C4.35547 17.2227 4.5 17.5742 4.5 17.9883C4.5 18.4023 4.35547 18.7578 4.06641 19.0547C3.77734 19.3516 3.42188 19.5 3 19.5V20.25C3 20.4531 3.07422 20.6289 3.22266 20.7773C3.37109 20.9258 3.54688 21 3.75 21H13.5V22.5H3C2.59375 22.5 2.24219 22.3516 1.94531 22.0547C1.64844 21.7578 1.5 21.4062 1.5 21V19.5C1.09375 19.5 0.742188 19.3516 0.445312 19.0547C0.148438 18.7578 0 18.4023 0 17.9883C0 17.5742 0.148438 17.2227 0.445312 16.9336C0.742188 16.6445 1.09375 16.5 1.5 16.5V15C1.09375 15 0.742188 14.8516 0.445312 14.5547C0.148438 14.2578 0 13.9023 0 13.4883C0 13.0742 0.148438 12.7227 0.445312 12.4336C0.742188 12.1445 1.09375 12 1.5 12V10.5C1.09375 10.5 0.742188 10.3555 0.445312 10.0664C0.148438 9.77734 0 9.42188 0 9C0 8.57812 0.148438 8.22266 0.445312 7.93359C0.742188 7.64453 1.09375 7.5 1.5 7.5V6C1.09375 6 0.742188 5.85547 0.445312 5.56641C0.148438 5.27734 0 4.92188 0 4.5C0 4.07812 0.148438 3.72266 0.445312 3.43359C0.742188 3.14453 1.09375 3 1.5 3V1.5C1.5 1.07812 1.64844 0.722656 1.94531 0.433594C2.24219 0.144531 2.59375 0 3 0H19.5C19.9062 0 20.2578 0.144531 20.5547 0.433594C20.8516 0.722656 21 1.07812 21 1.5V12H19.5V2.25Z"
        fill="#8C8FA5" />
</svg>
