<svg width="34" height="22" viewBox="0 0 34 22" fill="none" xmlns="http://www.w3.org/2000/svg">
<path d="M22.5559 11.9741C25.7702 11.9741 28.4001 9.34421 28.4001 6.12992C28.4001 2.91564 25.7702 0.285767 22.5559 0.285767C19.3417 0.285767 16.7118 2.91564 16.7118 6.12992C16.7118 9.34421 19.3417 11.9741 22.5559 11.9741ZM22.5559 1.25979C25.2345 1.25979 27.4261 3.45135 27.4261 6.12992C27.4261 8.80849 25.2345 11.0001 22.5559 11.0001C19.8774 11.0001 17.6858 8.80849 17.6858 6.12992C17.6858 3.45135 19.8774 1.25979 22.5559 1.25979Z" fill="white"/>
<path d="M26.9388 12.9481H18.1726C14.6661 12.9481 11.8414 15.7728 11.8414 19.2793V21.7144H12.8155V19.2793C12.8155 16.3085 15.2018 13.9221 18.1726 13.9221H26.9388C29.9096 13.9221 32.296 16.3085 32.296 19.2793V21.7144H33.27V19.2793C33.27 15.7728 30.4453 12.9481 26.9388 12.9481Z" fill="white"/>
<path d="M11.5146 12.0505C14.7498 12.0505 17.3969 9.40341 17.3969 6.16812C17.3969 2.93283 14.7498 0.285767 11.5146 0.285767C8.27926 0.285767 5.6322 2.93283 5.6322 6.16812C5.6322 9.40341 8.27926 12.0505 11.5146 12.0505ZM11.5146 1.26616C14.2106 1.26616 16.4165 3.47204 16.4165 6.16812C16.4165 8.8642 14.2106 11.0701 11.5146 11.0701C8.81848 11.0701 6.61259 8.8642 6.61259 6.16812C6.61259 3.47204 8.81848 1.26616 11.5146 1.26616Z" fill="white"/>
<path d="M15.9264 13.0309H7.1029C3.57348 13.0309 0.730347 15.874 0.730347 19.4034V21.8544H1.71074V19.4034C1.71074 16.4132 4.1127 14.0113 7.1029 14.0113H15.9264V13.0309Z" fill="white"/>
</svg>
