<svg width="15" height="19" viewBox="0 0 15 19" fill="none" xmlns="http://www.w3.org/2000/svg">
<path d="M7.5 0C11.6423 0 15 3.50076 15 7.81957C15 11.1238 12.7731 14.7249 8.37692 18.6611C8.13248 18.88 7.82082 19.0003 7.49856 19C7.17631 18.9997 6.86485 18.8789 6.62077 18.6595L6.33 18.3965C2.12846 14.5629 0 11.0501 0 7.81957C0 3.50076 3.35769 0 7.5 0ZM7.5 4.81205C6.73495 4.81205 6.00124 5.12891 5.46027 5.69293C4.9193 6.25695 4.61538 7.02193 4.61538 7.81957C4.61538 8.61722 4.9193 9.3822 5.46027 9.94622C6.00124 10.5102 6.73495 10.8271 7.5 10.8271C8.26505 10.8271 8.99876 10.5102 9.53973 9.94622C10.0807 9.3822 10.3846 8.61722 10.3846 7.81957C10.3846 7.02193 10.0807 6.25695 9.53973 5.69293C8.99876 5.12891 8.26505 4.81205 7.5 4.81205Z" fill="white"/>
</svg>
