<svg width="18" height="29" viewBox="0 0 18 29" fill="none" xmlns="http://www.w3.org/2000/svg">
<path d="M17.7201 11.2555L15.7821 10.7575C15.4347 12.0958 14.6985 13.301 13.6664 14.221C12.6344 15.141 11.3528 15.7345 9.98359 15.9265C8.61439 16.1184 7.21901 15.9003 5.97374 15.2996C4.72846 14.6989 3.68917 13.7425 2.98715 12.5514C2.28514 11.3603 1.9519 9.98787 2.02954 8.60745C2.10718 7.22704 2.59222 5.90061 3.42337 4.79574C4.25452 3.69086 5.39449 2.85711 6.69927 2.39983C8.00405 1.94254 9.4151 1.88223 10.7541 2.22652L11.2531 0.289523C9.30112 -0.218225 7.23506 -0.0547959 5.38715 0.753534C3.53923 1.56186 2.01683 2.96813 1.06471 4.74623C0.112583 6.52434 -0.213937 8.57096 0.137644 10.5571C0.489224 12.5432 1.49848 14.3533 3.00313 15.6965V28.0065L9.00313 24.0065L15.0031 28.0065V15.7145C16.3313 14.5308 17.2771 12.9786 17.7201 11.2555ZM13.0031 24.2695L9.00313 21.6025L5.00313 24.2695V17.0565C6.24417 17.68 7.61359 18.0052 9.00243 18.0062C10.3913 18.0072 11.7612 17.6841 13.0031 17.0625V24.2695Z" fill="white"/>
</svg>
