<svg width="22" height="25" viewBox="0 0 22 25" fill="none" xmlns="http://www.w3.org/2000/svg">
<path d="M22 13.4665C22.0014 12.748 21.8018 12.0434 21.4236 11.4329C21.0455 10.8225 20.5041 10.3306 19.861 10.0133C19.2179 9.69598 18.4989 9.56591 17.7858 9.63788C17.0726 9.70985 16.3939 9.98098 15.8268 10.4204C15.2596 10.8599 14.8269 11.45 14.5777 12.1238C14.3286 12.7976 14.273 13.5279 14.4172 14.2317C14.5615 14.9356 14.8999 15.5848 15.3939 16.1054C15.8879 16.6261 16.5177 16.9973 17.2118 17.177V18.2667C17.2118 19.5433 16.7059 20.7675 15.8055 21.6702C14.9051 22.5728 13.6839 23.0799 12.4106 23.0799C11.1372 23.0799 9.91605 22.5728 9.01565 21.6702C8.11526 20.7675 7.60942 19.5433 7.60942 18.2667C7.65757 17.1208 7.93698 15.9965 8.43077 14.9618C8.92457 13.9272 9.62249 13.0036 10.4824 12.247H10.3529C11.2681 11.6485 12.0228 10.834 12.5508 9.8749C13.0787 8.91583 13.3639 7.84153 13.3812 6.74624V2.88012C13.3812 2.11627 13.0785 1.3837 12.5397 0.843569C12.0009 0.303441 11.2702 0 10.5082 0H9.05883C8.80485 3.79412e-09 8.56127 0.101147 8.38168 0.28119C8.20208 0.461232 8.10119 0.705423 8.10119 0.960041C8.10119 1.21466 8.20208 1.45885 8.38168 1.63889C8.56127 1.81894 8.80485 1.92008 9.05883 1.92008H10.4824C10.7363 1.92008 10.9799 2.02123 11.1595 2.20127C11.3391 2.38132 11.44 2.62551 11.44 2.88012V6.74624C11.44 8.01485 10.9391 9.23189 10.0467 10.1314C9.15435 11.0308 7.94309 11.5396 6.67766 11.5464V12.247V11.5464C6.04886 11.5499 5.42554 11.4291 4.8433 11.191C4.26106 10.9529 3.7313 10.6022 3.28427 10.1589C2.83724 9.71553 2.48169 9.18827 2.23792 8.60718C1.99415 8.02609 1.86694 7.40256 1.86355 6.77218V2.88012C1.86355 2.62551 1.96444 2.38132 2.14404 2.20127C2.32363 2.02123 2.56721 1.92008 2.82119 1.92008H4.16708C4.42106 1.92008 4.66464 1.81894 4.84423 1.63889C5.02383 1.45885 5.12472 1.21466 5.12472 0.960041C5.12472 0.705423 5.02383 0.461232 4.84423 0.28119C4.66464 0.101147 4.42106 0 4.16708 0H2.82119C2.06825 0.0136027 1.35074 0.323038 0.823103 0.861699C0.295468 1.40036 -9.97119e-05 2.12517 2.25389e-05 2.88012V6.74624C-0.00277373 7.82528 0.254656 8.889 0.750381 9.84679C1.24611 10.8046 1.96543 11.628 2.84708 12.247C3.70223 13.0059 4.39532 13.9305 4.88461 14.965C5.3739 15.9996 5.64927 17.1227 5.69413 18.2667C5.69413 19.151 5.86786 20.0265 6.20539 20.8434C6.54293 21.6604 7.03766 22.4026 7.66134 23.0279C8.28502 23.6531 9.02544 24.1491 9.84032 24.4875C10.6552 24.8258 11.5286 25 12.4106 25C13.2926 25 14.166 24.8258 14.9809 24.4875C15.7958 24.1491 16.5362 23.6531 17.1598 23.0279C17.7835 22.4026 18.2783 21.6604 18.6158 20.8434C18.9533 20.0265 19.1271 19.151 19.1271 18.2667V17.177C19.948 16.9645 20.6755 16.4849 21.1954 15.8134C21.7153 15.142 21.9983 14.3165 22 13.4665ZM18.1176 15.3866C17.7388 15.3866 17.3685 15.274 17.0536 15.063C16.7386 14.852 16.4931 14.5522 16.3481 14.2013C16.2032 13.8505 16.1653 13.4644 16.2392 13.0919C16.3131 12.7195 16.4955 12.3774 16.7633 12.1088C17.0312 11.8403 17.3725 11.6574 17.744 11.5833C18.1155 11.5093 18.5006 11.5473 18.8506 11.6926C19.2006 11.8379 19.4997 12.084 19.7102 12.3998C19.9206 12.7155 20.0329 13.0868 20.0329 13.4665C20.0329 13.7187 19.9834 13.9684 19.8871 14.2013C19.7909 14.4343 19.6498 14.6459 19.472 14.8242C19.2941 15.0025 19.083 15.144 18.8506 15.2405C18.6182 15.3369 18.3692 15.3866 18.1176 15.3866Z" fill="#8C8FA5"/>
</svg>
