<svg width="15" height="16" viewBox="0 0 15 16" fill="none" xmlns="http://www.w3.org/2000/svg">
<path d="M13.9225 12.3134C13.4668 11.9071 13.0678 11.4414 12.7363 10.9287C12.3744 10.221 12.1575 9.44816 12.0983 8.65551V6.32091C12.1015 5.07592 11.6499 3.87264 10.8284 2.93714C10.0069 2.00165 8.87203 1.39833 7.63708 1.24055V0.63091C7.63708 0.463582 7.57061 0.303108 7.45229 0.184789C7.33397 0.0664707 7.1735 0 7.00617 0C6.83884 0 6.67837 0.0664707 6.56005 0.184789C6.44173 0.303108 6.37526 0.463582 6.37526 0.63091V1.25C5.15137 1.41916 4.03025 2.02612 3.21954 2.95847C2.40884 3.89083 1.96349 5.08539 1.96598 6.32091V8.65551C1.90679 9.44816 1.68988 10.221 1.32798 10.9287C1.00231 11.4402 0.609735 11.9059 0.160681 12.3134C0.11027 12.3577 0.0698686 12.4122 0.0421634 12.4733C0.0144582 12.5344 8.49702e-05 12.6007 0 12.6678V13.3105C0 13.4359 0.0497907 13.5561 0.138419 13.6447C0.227047 13.7333 0.347253 13.7831 0.472592 13.7831H13.6106C13.736 13.7831 13.8562 13.7333 13.9448 13.6447C14.0334 13.5561 14.0832 13.4359 14.0832 13.3105V12.6678C14.0831 12.6007 14.0688 12.5344 14.0411 12.4733C14.0134 12.4122 13.973 12.3577 13.9225 12.3134ZM0.98299 12.8379C1.42269 12.4132 1.80984 11.9372 2.13611 11.4202C2.59198 10.5655 2.85796 9.62245 2.91589 8.65551V6.32091C2.89715 5.76705 2.99005 5.21508 3.18907 4.69787C3.38809 4.18067 3.68915 3.7088 4.07433 3.31036C4.45951 2.91193 4.92093 2.59508 5.43111 2.37868C5.94129 2.16229 6.4898 2.05077 7.04398 2.05077C7.59815 2.05077 8.14666 2.16229 8.65685 2.37868C9.16703 2.59508 9.62844 2.91193 10.0136 3.31036C10.3988 3.7088 10.6999 4.18067 10.8989 4.69787C11.0979 5.21508 11.1908 5.76705 11.1721 6.32091V8.65551C11.23 9.62245 11.496 10.5655 11.9518 11.4202C12.2781 11.9372 12.6653 12.4132 13.105 12.8379H0.98299Z" fill="#8C8FA5"/>
<path d="M7.0658 15.3616C7.3635 15.3547 7.64919 15.2428 7.87233 15.0456C8.09546 14.8484 8.24167 14.5787 8.28509 14.2841H5.79926C5.8439 14.5867 5.99695 14.8628 6.22993 15.061C6.46291 15.2592 6.75995 15.366 7.0658 15.3616Z" fill="#8C8FA5"/>
</svg>
