<svg width="14" height="10" viewBox="0 0 14 10" fill="none" xmlns="http://www.w3.org/2000/svg">
<path d="M9.49982 7C9.36721 7 9.24003 7.05268 9.14626 7.14645C9.05249 7.24021 8.99982 7.36739 8.99982 7.5C8.99982 7.63261 9.05249 7.75979 9.14626 7.85355C9.24003 7.94732 9.36721 8 9.49982 8H11.4998C11.6324 8 11.7596 7.94732 11.8534 7.85355C11.9471 7.75979 11.9998 7.63261 11.9998 7.5C11.9998 7.36739 11.9471 7.24021 11.8534 7.14645C11.7596 7.05268 11.6324 7 11.4998 7H9.49982Z" fill="#8C8FA5"/>
<path d="M0 2C0 1.46957 0.210714 0.960859 0.585786 0.585786C0.960859 0.210714 1.46957 0 2 0H12C12.5304 0 13.0391 0.210714 13.4142 0.585786C13.7893 0.960859 14 1.46957 14 2V8C14 8.53043 13.7893 9.03914 13.4142 9.41421C13.0391 9.78929 12.5304 10 12 10H2C1.46957 10 0.960859 9.78929 0.585786 9.41421C0.210714 9.03914 0 8.53043 0 8V2ZM13 2C13 1.73478 12.8946 1.48043 12.7071 1.29289C12.5196 1.10536 12.2652 1 12 1H2C1.73478 1 1.48043 1.10536 1.29289 1.29289C1.10536 1.48043 1 1.73478 1 2V3H13V2ZM1 8C1 8.26522 1.10536 8.51957 1.29289 8.70711C1.48043 8.89464 1.73478 9 2 9H12C12.2652 9 12.5196 8.89464 12.7071 8.70711C12.8946 8.51957 13 8.26522 13 8V4H1V8Z" fill="#8C8FA5"/>
</svg>
