<svg width="10" height="14" viewBox="0 0 10 14" fill="none" xmlns="http://www.w3.org/2000/svg">
<path d="M4.9997 1C5.49415 1 5.9775 1.14662 6.38862 1.42133C6.79974 1.69603 7.12018 2.08648 7.3094 2.54329C7.49861 3.00011 7.54812 3.50277 7.45166 3.98773C7.3552 4.47268 7.11709 4.91814 6.76746 5.26777C6.41783 5.6174 5.97237 5.8555 5.48742 5.95196C5.00247 6.04843 4.4998 5.99892 4.04299 5.8097C3.58617 5.62048 3.19573 5.30005 2.92102 4.88893C2.64632 4.4778 2.4997 3.99445 2.4997 3.5C2.4997 2.83696 2.76309 2.20107 3.23193 1.73223C3.70077 1.26339 4.33666 1 4.9997 1ZM4.9997 0C4.30746 0 3.63077 0.205271 3.0552 0.589856C2.47963 0.974441 2.03102 1.52107 1.76612 2.16061C1.50121 2.80015 1.4319 3.50388 1.56695 4.18282C1.702 4.86175 2.03534 5.48539 2.52482 5.97487C3.01431 6.46436 3.63795 6.7977 4.31688 6.93275C4.99581 7.0678 5.69955 6.99849 6.33909 6.73358C6.97863 6.46867 7.52526 6.02007 7.90984 5.4445C8.29443 4.86892 8.4997 4.19223 8.4997 3.5C8.4997 2.57174 8.13095 1.6815 7.47457 1.02513C6.81819 0.368749 5.92795 0 4.9997 0Z" fill="#8C8FA5"/>
<path d="M10 13.9999H9V11.4999C9 10.8369 8.73661 10.201 8.26777 9.73217C7.79893 9.26333 7.16304 8.99994 6.5 8.99994H3.5C2.83696 8.99994 2.20107 9.26333 1.73223 9.73217C1.26339 10.201 1 10.8369 1 11.4999V13.9999H0V11.4999C0 10.5717 0.368749 9.68144 1.02513 9.02507C1.6815 8.36869 2.57174 7.99994 3.5 7.99994H6.5C7.42826 7.99994 8.3185 8.36869 8.97487 9.02507C9.63125 9.68144 10 10.5717 10 11.4999V13.9999Z" fill="#8C8FA5"/>
</svg>
